<svg width="13" height="9" viewBox="0 0 13 9" fill="none" xmlns="http://www.w3.org/2000/svg">
<path d="M12.2649 0.765L4.26492 8.765C4.19461 8.83523 4.0993 8.87467 3.99992 8.87467C3.90055 8.87467 3.80524 8.83523 3.73492 8.765L0.234923 5.265C0.168683 5.19391 0.132622 5.09989 0.134336 5.00274C0.13605 4.90559 0.175406 4.8129 0.244112 4.74419C0.312819 4.67548 0.405511 4.63613 0.502662 4.63441C0.599813 4.6327 0.693836 4.66876 0.764923 4.735L3.99992 7.96937L11.7349 0.235C11.806 0.16876 11.9 0.132698 11.9972 0.134412C12.0943 0.136126 12.187 0.175483 12.2557 0.244189C12.3244 0.312896 12.3638 0.405588 12.3655 0.502739C12.3672 0.599889 12.3312 0.693912 12.2649 0.765Z" fill="white"/>
</svg>
